<svg width="21" height="21" viewBox="0 0 21 21" fill="none" xmlns="http://www.w3.org/2000/svg">
<path d="M13.1475 4.77896C12.245 5.68229 10.5309 5.43312 10.5309 5.43312C10.5309 5.43312 10.2825 3.71979 11.1859 2.81646C12.0884 1.91396 13.8025 2.16312 13.8025 2.16312C13.8025 2.16312 14.0509 3.87562 13.1475 4.77896ZM3.83337 12.1815C3.83337 14.9156 5.66337 18.0565 7.51587 18.7206C8.15754 18.9506 8.82171 18.6331 9.37337 18.2373C9.79171 17.9373 10.2984 17.6515 10.7084 17.6515C11.1167 17.6515 11.625 17.9373 12.0425 18.2373C12.5942 18.6331 13.2584 18.9506 13.9009 18.7206C15.2167 18.249 16.5217 16.5265 17.1667 14.5873C15.9167 14.229 15.005 13.099 15.005 11.7598C15.005 10.5331 15.7709 9.48146 16.86 9.03896C16.1584 7.79229 15.0117 7.13146 13.7159 7.13146C13.0459 7.13146 12.4292 7.40146 11.9325 7.72562C11.1375 8.24229 10.2784 8.24229 9.48421 7.72562C8.98671 7.40146 8.37087 7.13146 7.70087 7.13146C5.56421 7.13146 3.83337 8.92729 3.83337 12.1815Z" stroke="#F76388" stroke-width="1.5" stroke-linecap="round" stroke-linejoin="round"/>
</svg>
