<svg width="17" height="16" viewBox="0 0 17 16" fill="none" xmlns="http://www.w3.org/2000/svg">
<path d="M1.93325 2.39999H4.33325L5.93325 0.799988H10.7333L12.3333 2.39999H14.7333C15.1576 2.39999 15.5646 2.56856 15.8646 2.86862C16.1647 3.16867 16.3333 3.57564 16.3333 3.99999V13.6C16.3333 14.0243 16.1647 14.4313 15.8646 14.7314C15.5646 15.0314 15.1576 15.2 14.7333 15.2H1.93325C1.50891 15.2 1.10194 15.0314 0.801881 14.7314C0.501823 14.4313 0.333252 14.0243 0.333252 13.6V3.99999C0.333252 3.57564 0.501823 3.16867 0.801881 2.86862C1.10194 2.56856 1.50891 2.39999 1.93325 2.39999ZM8.33325 4.79999C7.27239 4.79999 6.25497 5.22142 5.50483 5.97156C4.75468 6.72171 4.33325 7.73912 4.33325 8.79999C4.33325 9.86085 4.75468 10.8783 5.50483 11.6284C6.25497 12.3786 7.27239 12.8 8.33325 12.8C9.39412 12.8 10.4115 12.3786 11.1617 11.6284C11.9118 10.8783 12.3333 9.86085 12.3333 8.79999C12.3333 7.73912 11.9118 6.72171 11.1617 5.97156C10.4115 5.22142 9.39412 4.79999 8.33325 4.79999ZM8.33325 6.39999C8.96977 6.39999 9.58022 6.65284 10.0303 7.10293C10.4804 7.55302 10.7333 8.16347 10.7333 8.79999C10.7333 9.43651 10.4804 10.047 10.0303 10.497C9.58022 10.9471 8.96977 11.2 8.33325 11.2C7.69673 11.2 7.08628 10.9471 6.6362 10.497C6.18611 10.047 5.93325 9.43651 5.93325 8.79999C5.93325 8.16347 6.18611 7.55302 6.6362 7.10293C7.08628 6.65284 7.69673 6.39999 8.33325 6.39999Z" fill="#F76388"/>
</svg>
