<svg width="34" height="33" viewBox="0 0 34 33" fill="none" xmlns="http://www.w3.org/2000/svg">
<path d="M14.5522 32.159L13.0543 29.4449L32.053 18.9597L33.5509 21.6737L14.5522 32.159ZM11.9309 27.4093L4.19034 17.474C4.14511 17.4989 4.09734 17.5327 4.04704 17.5752C3.99674 17.6177 3.94897 17.6514 3.90373 17.6764C3.3383 17.9885 2.74845 18.0558 2.1342 17.8784C1.51996 17.7011 1.0568 17.3297 0.744739 16.7642C0.432677 16.1988 0.365328 15.609 0.54269 14.9947C0.720052 14.3805 1.09145 13.9173 1.65689 13.6052C2.22232 13.2932 2.81217 13.2258 3.42642 13.4032C4.04066 13.5806 4.50382 13.952 4.81588 14.5174C4.90326 14.6757 4.96743 14.8321 5.0084 14.9865C5.04937 15.141 5.07844 15.2872 5.09562 15.4252L10.3849 14.9846L11.4239 6.84281C11.0753 6.79918 10.7407 6.67404 10.4201 6.46739C10.0995 6.26074 9.84556 5.98778 9.65832 5.64852C9.34626 5.08308 9.27891 4.49324 9.45627 3.87899C9.63364 3.26474 10.005 2.80159 10.5705 2.48953C11.1359 2.17747 11.7258 2.11012 12.34 2.28748C12.9542 2.46484 13.4174 2.83624 13.7295 3.40168C13.9167 3.74094 14.0123 4.10127 14.0162 4.48268C14.0202 4.86408 13.9477 5.2139 13.7988 5.53215L21.2413 8.99307L24.4335 4.75274C24.3259 4.66462 24.2177 4.56207 24.1088 4.44508C24 4.3281 23.9019 4.19045 23.8145 4.03213C23.5025 3.46669 23.4351 2.87685 23.6125 2.2626C23.7899 1.64835 24.1613 1.1852 24.7267 0.873137C25.2921 0.561075 25.882 0.493726 26.4962 0.671088C27.1105 0.84845 27.5736 1.21985 27.8857 1.78529C28.1977 2.35072 28.2651 2.94056 28.0877 3.55481C27.9104 4.16906 27.539 4.63222 26.9735 4.94428C26.9283 4.96924 26.8743 4.99168 26.8115 5.01157C26.7487 5.03147 26.6947 5.0539 26.6495 5.07887L30.9295 16.9241L11.9309 27.4093ZM12.74 23.422L27.1247 15.4832L24.8799 9.33071L22.1789 12.8573L14.2403 9.13906L13.1546 17.8378L8.73103 18.2432L12.74 23.422Z" fill="#F76388"/>
</svg>
