<svg width="12" height="13" viewBox="0 0 12 13" fill="none" xmlns="http://www.w3.org/2000/svg">
<path d="M8.1 11.2961H8.7V9.79609H10.2V9.19609H8.7V7.69609H8.1V9.19609H6.6V9.79609H8.1V11.2961ZM8.4 12.4961C7.57 12.4961 6.8625 12.2036 6.2775 11.6186C5.6925 11.0336 5.4 10.3261 5.4 9.49609C5.4 8.66609 5.6925 7.95859 6.2775 7.37359C6.8625 6.78859 7.57 6.49609 8.4 6.49609C9.23 6.49609 9.9375 6.78859 10.5225 7.37359C11.1075 7.95859 11.4 8.66609 11.4 9.49609C11.4 10.3261 11.1075 11.0336 10.5225 11.6186C9.9375 12.2036 9.23 12.4961 8.4 12.4961ZM0 11.2961V4.09609L4.8 0.496094L9.6 4.09609V5.47609C9.41 5.41609 9.215 5.37109 9.015 5.34109C8.815 5.31109 8.61 5.29609 8.4 5.29609V4.69609L4.8 1.99609L1.2 4.69609V10.0961H4.245C4.275 10.3061 4.32 10.5111 4.38 10.7111C4.44 10.9111 4.515 11.1061 4.605 11.2961H0Z" fill="#F76388"/>
</svg>
