<svg width="21" height="21" viewBox="0 0 21 21" fill="none" xmlns="http://www.w3.org/2000/svg">
<path d="M10.5008 7.96492C9.83775 7.96492 9.20187 8.22832 8.73303 8.69716C8.26418 9.166 8.00079 9.80188 8.00079 10.4649C8.00079 11.128 8.26418 11.7639 8.73303 12.2327C9.20187 12.7015 9.83775 12.9649 10.5008 12.9649C11.1638 12.9649 11.7997 12.7015 12.2686 12.2327C12.7374 11.7639 13.0008 11.128 13.0008 10.4649C13.0008 9.80188 12.7374 9.166 12.2686 8.69716C11.7997 8.22832 11.1638 7.96492 10.5008 7.96492ZM10.5008 6.29826C11.6059 6.29826 12.6657 6.73725 13.4471 7.51865C14.2285 8.30005 14.6675 9.35986 14.6675 10.4649C14.6675 11.57 14.2285 12.6298 13.4471 13.4112C12.6657 14.1926 11.6059 14.6316 10.5008 14.6316C9.39572 14.6316 8.33592 14.1926 7.55451 13.4112C6.77311 12.6298 6.33413 11.57 6.33413 10.4649C6.33413 9.35986 6.77311 8.30005 7.55451 7.51865C8.33592 6.73725 9.39572 6.29826 10.5008 6.29826ZM15.9175 6.08993C15.9175 6.36619 15.8077 6.63114 15.6124 6.82649C15.417 7.02184 15.1521 7.13159 14.8758 7.13159C14.5995 7.13159 14.3346 7.02184 14.1392 6.82649C13.9439 6.63114 13.8341 6.36619 13.8341 6.08993C13.8341 5.81366 13.9439 5.54871 14.1392 5.35336C14.3346 5.158 14.5995 5.04826 14.8758 5.04826C15.1521 5.04826 15.417 5.158 15.6124 5.35336C15.8077 5.54871 15.9175 5.81366 15.9175 6.08993ZM10.5008 3.79826C8.43913 3.79826 8.10246 3.80409 7.14329 3.84659C6.48996 3.87743 6.05163 3.96492 5.64496 4.12326C5.30482 4.24857 4.99723 4.44879 4.74496 4.70909C4.48435 4.96127 4.28384 5.26887 4.15829 5.60909C3.99996 6.01742 3.91246 6.45493 3.88246 7.10743C3.83913 8.02743 3.83329 8.34909 3.83329 10.4649C3.83329 12.5274 3.83913 12.8633 3.88163 13.8224C3.91246 14.4749 3.99996 14.9141 4.15746 15.3199C4.29913 15.6824 4.46579 15.9433 4.74246 16.2199C5.02329 16.4999 5.28413 16.6674 5.64246 16.8058C6.05413 16.9649 6.49246 17.0533 7.14246 17.0833C8.06246 17.1266 8.38413 17.1316 10.5 17.1316C12.5625 17.1316 12.8983 17.1258 13.8575 17.0833C14.5091 17.0524 14.9475 16.9649 15.355 16.8074C15.6951 16.6821 16.0027 16.4819 16.255 16.2216C16.5358 15.9416 16.7033 15.6808 16.8416 15.3216C17 14.9116 17.0883 14.4733 17.1183 13.8216C17.1616 12.9024 17.1666 12.5799 17.1666 10.4649C17.1666 8.40326 17.1608 8.06659 17.1183 7.10743C17.0875 6.45576 16.9991 6.01576 16.8416 5.60909C16.7163 5.26895 16.5161 4.96136 16.2558 4.70909C16.0036 4.44849 15.696 4.24798 15.3558 4.12243C14.9475 3.96409 14.5091 3.87659 13.8575 3.84659C12.9383 3.80326 12.6166 3.79826 10.5 3.79826M10.5 2.13159C12.7641 2.13159 13.0466 2.13993 13.9358 2.18159C14.8225 2.22326 15.4275 2.36243 15.9583 2.56909C16.5083 2.78076 16.9716 3.06743 17.435 3.52993C17.8589 3.94637 18.1868 4.45032 18.3958 5.00659C18.6016 5.53742 18.7416 6.14242 18.7833 7.02992C18.8225 7.91826 18.8333 8.20076 18.8333 10.4649C18.8333 12.7291 18.825 13.0116 18.7833 13.8999C18.7416 14.7883 18.6016 15.3916 18.3958 15.9233C18.1868 16.4795 17.8589 16.9835 17.435 17.3999C17.0185 17.8238 16.5146 18.1517 15.9583 18.3608C15.4275 18.5666 14.8225 18.7066 13.9358 18.7483C13.0466 18.7874 12.7641 18.7983 10.5 18.7983C8.23579 18.7983 7.95329 18.7899 7.06413 18.7483C6.17746 18.7066 5.57329 18.5666 5.04163 18.3608C4.48535 18.1517 3.9814 17.8238 3.56496 17.3999C3.14105 16.9835 2.81314 16.4795 2.60413 15.9233C2.39746 15.3924 2.25829 14.7874 2.21663 13.8999C2.17663 13.0116 2.16663 12.7291 2.16663 10.4649C2.16663 8.20076 2.17496 7.91826 2.21663 7.02992C2.25829 6.14159 2.39746 5.53826 2.60413 5.00659C2.81314 4.45032 3.14105 3.94637 3.56496 3.52993C3.9814 3.10601 4.48535 2.77811 5.04163 2.56909C5.57246 2.36243 6.17663 2.22326 7.06413 2.18159C7.95413 2.14243 8.23663 2.13159 10.5008 2.13159" fill="#F76388"/>
</svg>
