<svg width="19" height="17" viewBox="0 0 19 17" fill="none" xmlns="http://www.w3.org/2000/svg">
<path d="M0.523035 5.15995H0.849648C1.0257 3.34186 2.15064 1.83389 3.66258 1.16293L3.6627 1.16288C5.06079 0.542857 6.82299 0.624575 8.52304 1.89026L8.66795 1.74429C8.69067 1.7214 8.71345 1.69869 8.73626 1.67617C6.949 0.343866 5.04999 0.227914 3.51678 0.907736L0.523035 5.15995ZM0.523035 5.15995C0.700195 3.24665 1.88325 1.63278 3.51664 0.907799L0.523035 5.15995ZM10.3323 1.74537C10.3093 1.7222 10.2863 1.69922 10.2632 1.67643C12.0516 0.343827 13.9499 0.227821 15.4833 0.90777C17.1174 1.63269 18.2999 3.24652 18.477 5.15995H18.1504C17.9744 3.34119 16.8494 1.83389 15.3374 1.16293L15.3373 1.16288C13.939 0.542754 12.1766 0.625289 10.4765 1.89086L10.3323 1.74537ZM18.1567 6.15995H18.4829C18.3531 8.04248 17.4956 9.5192 16.3628 10.756L16.3626 10.7562C15.3696 11.8413 14.1587 12.7464 13.0483 13.5763C12.9238 13.6694 12.8005 13.7615 12.6789 13.8529L12.4892 13.6196C12.6049 13.5328 12.7217 13.4455 12.8393 13.3576C13.9507 12.5268 15.1352 11.6414 16.1095 10.5777L16.1098 10.5774C17.2049 9.37987 18.0276 7.96366 18.1567 6.15995ZM11.6916 14.2238L11.8811 14.4568C11.5601 14.6954 11.2389 14.9203 10.9178 15.1024C10.6184 15.2718 10.3122 15.4082 10 15.4823V15.1847C10.2402 15.1176 10.4863 15.0067 10.7411 14.8627C11.0533 14.6862 11.3686 14.4647 11.6916 14.2238ZM9 15.185V15.4825C8.68771 15.4086 8.38162 15.2723 8.0828 15.1027C7.76197 14.9205 7.44026 14.6954 7.119 14.4567L7.30838 14.2238C7.63116 14.4646 7.9463 14.6859 8.25832 14.8624C8.51345 15.0074 8.75986 15.1182 9 15.185ZM6.51076 13.6196L6.32102 13.853C6.20296 13.7643 6.08327 13.6749 5.96238 13.5845C4.8493 12.7527 3.63346 11.844 2.63727 10.7561L2.63713 10.7559C1.50445 9.52 0.646928 8.04265 0.517071 6.15995H0.843291C0.972428 7.96366 1.79505 9.37987 2.89019 10.5774L2.89046 10.5777C3.86484 11.6414 5.04932 12.5268 6.16073 13.3576C6.27834 13.4455 6.39513 13.5328 6.51076 13.6196Z" fill="#6D6D6D" stroke="#D9D9D9"/>
</svg>
