<svg width="17" height="12" viewBox="0 0 17 12" fill="none" xmlns="http://www.w3.org/2000/svg">
<path d="M7.08293 4.43806C7.01818 4.24334 7.03338 4.03088 7.1252 3.84736C7.21702 3.66384 7.37794 3.52428 7.57261 3.45935L8.3468 3.20129C8.46314 3.16256 8.58701 3.15202 8.70822 3.17054C8.82943 3.18905 8.9445 3.23609 9.04397 3.30778C9.14345 3.37947 9.22447 3.47376 9.28037 3.58289C9.33627 3.69202 9.36545 3.81287 9.36551 3.93548V6.51613C9.36551 6.72146 9.28394 6.91837 9.13875 7.06356C8.99356 7.20875 8.79665 7.29032 8.59132 7.29032C8.38599 7.29032 8.18907 7.20875 8.04388 7.06356C7.89869 6.91837 7.81712 6.72146 7.81712 6.51613V4.96774C7.65464 4.96766 7.4963 4.91646 7.36453 4.8214C7.23277 4.72634 7.13425 4.59223 7.08293 4.43806ZM16.3333 11.1613C16.3333 11.3666 16.2517 11.5635 16.1065 11.7087C15.9613 11.8539 15.7644 11.9355 15.5591 11.9355H1.10745C0.902117 11.9355 0.705197 11.8539 0.560008 11.7087C0.414819 11.5635 0.333252 11.3666 0.333252 11.1613C0.333252 10.956 0.414819 10.759 0.560008 10.6139C0.705197 10.4687 0.902117 10.3871 1.10745 10.3871H1.36551V4.45161C1.36551 4.1094 1.50145 3.7812 1.74344 3.53922C1.98542 3.29723 2.31362 3.16129 2.65583 3.16129H4.97841V1.35484C4.97841 1.01262 5.11436 0.684423 5.35634 0.442441C5.59832 0.200458 5.92652 0.0645142 6.26874 0.0645142H10.3978C10.74 0.0645142 11.0682 0.200458 11.3102 0.442441C11.5521 0.684423 11.6881 1.01262 11.6881 1.35484V5.74193H14.0107C14.3529 5.74193 14.6811 5.87788 14.9231 6.11986C15.165 6.36184 15.301 6.69004 15.301 7.03226V10.3871H15.5591C15.7644 10.3871 15.9613 10.4687 16.1065 10.6139C16.2517 10.759 16.3333 10.956 16.3333 11.1613ZM11.6881 7.29032V10.3871H13.7526V7.29032H11.6881ZM6.5268 10.3871H10.1397V1.6129H6.5268V10.3871ZM2.9139 10.3871H4.97841V4.70968H2.9139V10.3871Z" fill="#F76388"/>
</svg>
