<svg width="13" height="14" viewBox="0 0 13 14" fill="none" xmlns="http://www.w3.org/2000/svg">
<path fill-rule="evenodd" clip-rule="evenodd" d="M4.70803 6.22091e-08C4.95288 7.96578e-05 5.19336 0.0653835 5.40511 0.189295C5.61685 0.313207 5.79234 0.491324 5.91379 0.705599L6.5 1.7388L7.08621 0.705599C7.20766 0.491324 7.38315 0.313207 7.59489 0.189295C7.80664 0.0653835 8.04712 7.96578e-05 8.29198 6.22091e-08H11.4578C11.6403 -6.32439e-05 11.8196 0.0481914 11.9778 0.139933C12.136 0.231675 12.2675 0.363685 12.3591 0.522747C12.4508 0.68181 12.4993 0.862344 12.5 1.04628C12.5006 1.23021 12.4533 1.41108 12.3628 1.5708L10.0138 5.71339C10.672 6.40706 11.1136 7.28028 11.2837 8.22466C11.4539 9.16903 11.3451 10.143 10.9708 11.0256C10.5966 11.9082 9.97335 12.6606 9.17855 13.1893C8.38375 13.7181 7.45236 14 6.5 14C5.54764 14 4.61625 13.7181 3.82145 13.1893C3.02665 12.6606 2.40344 11.9082 2.02919 11.0256C1.65494 10.143 1.54613 9.16903 1.71626 8.22466C1.8864 7.28028 2.32798 6.40706 2.9862 5.71339L0.637188 1.5708C0.546665 1.41108 0.499359 1.23021 0.500007 1.04628C0.500654 0.862344 0.549231 0.68181 0.640875 0.522747C0.732519 0.363685 0.864014 0.231675 1.0222 0.139933C1.18038 0.0481914 1.3597 -6.32439e-05 1.5422 6.22091e-08H4.70803ZM6.5 5.59999C5.57895 5.59999 4.69563 5.96874 4.04435 6.62512C3.39307 7.28149 3.02718 8.17173 3.02718 9.09999C3.02718 10.0282 3.39307 10.9185 4.04435 11.5749C4.69563 12.2312 5.57895 12.6 6.5 12.6C7.42105 12.6 8.30438 12.2312 8.95566 11.5749C9.60694 10.9185 9.97282 10.0282 9.97282 9.09999C9.97282 8.17173 9.60694 7.28149 8.95566 6.62512C8.30438 5.96874 7.42105 5.59999 6.5 5.59999ZM6.5 7.69999C6.86842 7.69999 7.22175 7.84749 7.48226 8.11004C7.74277 8.37259 7.88913 8.72869 7.88913 9.09999C7.88913 9.47129 7.74277 9.82738 7.48226 10.0899C7.22175 10.3525 6.86842 10.5 6.5 10.5C6.13158 10.5 5.77825 10.3525 5.51774 10.0899C5.25723 9.82738 5.11087 9.47129 5.11087 9.09999C5.11087 8.72869 5.25723 8.37259 5.51774 8.11004C5.77825 7.84749 6.13158 7.69999 6.5 7.69999ZM10.8598 1.4H8.29198L7.30014 3.15L8.03638 4.44989C8.34245 4.55256 8.63301 4.68323 8.90805 4.84189L10.8598 1.4ZM4.70803 1.4H2.14022L4.09195 4.84189C4.76581 4.45396 5.52244 4.23523 6.29788 4.20419L4.70803 1.4Z" fill="#F76388"/>
</svg>
