<svg width="13" height="12" viewBox="0 0 13 12" fill="none" xmlns="http://www.w3.org/2000/svg">
<path d="M5.23929 5.67252C4.51889 5.67252 3.90218 5.41602 3.38917 4.903C2.87615 4.38999 2.61965 3.77328 2.61965 3.05287C2.61965 2.33247 2.87615 1.71576 3.38917 1.20275C3.90218 0.689735 4.51889 0.433228 5.23929 0.433228C5.9597 0.433228 6.57641 0.689735 7.08942 1.20275C7.60243 1.71576 7.85894 2.33247 7.85894 3.05287C7.85894 3.77328 7.60243 4.38999 7.08942 4.903C6.57641 5.41602 5.9597 5.67252 5.23929 5.67252ZM0 10.9118V9.07806C0 8.71786 0.0927792 8.37949 0.278338 8.06295C0.463896 7.74641 0.720403 7.50628 1.04786 7.34255C1.60453 7.05875 2.23216 6.81862 2.93073 6.62214C3.6293 6.42567 4.39882 6.32743 5.23929 6.32743H5.46851C5.53401 6.32743 5.5995 6.33835 5.66499 6.36018C5.57767 6.55665 5.50399 6.76131 5.44395 6.97416C5.38392 7.18701 5.33753 7.40804 5.30479 7.63726H5.23929C4.46432 7.63726 3.76847 7.73549 3.15176 7.93197C2.53505 8.12844 2.03023 8.32491 1.63728 8.52139C1.53904 8.57596 1.45991 8.65237 1.39987 8.75061C1.33984 8.84884 1.30982 8.958 1.30982 9.07806V9.60199H5.43577C5.50126 9.83121 5.58858 10.0577 5.69773 10.2815C5.80688 10.5052 5.92695 10.7153 6.05793 10.9118H0ZM9.16877 11.5667L8.97229 10.5844C8.84131 10.5298 8.71851 10.4725 8.6039 10.4124C8.48929 10.3524 8.37196 10.2787 8.25189 10.1914L7.30227 10.4861L6.64736 9.37277L7.4005 8.71786C7.37867 8.56505 7.36776 8.42315 7.36776 8.29217C7.36776 8.16119 7.37867 8.01929 7.4005 7.86648L6.64736 7.21157L7.30227 6.09822L8.25189 6.39293C8.37196 6.3056 8.48929 6.23193 8.6039 6.17189C8.71851 6.11186 8.84131 6.05455 8.97229 5.99998L9.16877 5.01761H10.4786L10.6751 5.99998C10.806 6.05455 10.9288 6.11459 11.0435 6.18008C11.1581 6.24557 11.2754 6.32743 11.3955 6.42567L12.3451 6.09822L13 7.24431L12.2469 7.89922C12.2687 8.0302 12.2796 8.16665 12.2796 8.30854C12.2796 8.45044 12.2687 8.58688 12.2469 8.71786L13 9.37277L12.3451 10.4861L11.3955 10.1914C11.2754 10.2787 11.1581 10.3524 11.0435 10.4124C10.9288 10.4725 10.806 10.5298 10.6751 10.5844L10.4786 11.5667H9.16877ZM9.82368 9.60199C10.1839 9.60199 10.4922 9.47374 10.7487 9.21723C11.0052 8.96073 11.1335 8.65237 11.1335 8.29217C11.1335 7.93197 11.0052 7.62361 10.7487 7.36711C10.4922 7.1106 10.1839 6.98235 9.82368 6.98235C9.46348 6.98235 9.15512 7.1106 8.89861 7.36711C8.64211 7.62361 8.51385 7.93197 8.51385 8.29217C8.51385 8.65237 8.64211 8.96073 8.89861 9.21723C9.15512 9.47374 9.46348 9.60199 9.82368 9.60199ZM5.23929 4.3627C5.5995 4.3627 5.90785 4.23444 6.16436 3.97794C6.42087 3.72143 6.54912 3.41308 6.54912 3.05287C6.54912 2.69267 6.42087 2.38432 6.16436 2.12781C5.90785 1.8713 5.5995 1.74305 5.23929 1.74305C4.87909 1.74305 4.57074 1.8713 4.31423 2.12781C4.05772 2.38432 3.92947 2.69267 3.92947 3.05287C3.92947 3.41308 4.05772 3.72143 4.31423 3.97794C4.57074 4.23444 4.87909 4.3627 5.23929 4.3627Z" fill="#D9D9D9"/>
</svg>
