<svg width="15" height="16" viewBox="0 0 15 16" fill="none" xmlns="http://www.w3.org/2000/svg">
<path d="M5.25 15.5C5.05109 15.5 4.86032 15.421 4.71967 15.2803C4.57902 15.1397 4.5 14.9489 4.5 14.75V12.5H1.5C1.10218 12.5 0.720644 12.342 0.43934 12.0607C0.158035 11.7794 0 11.3978 0 11V2C0 1.60218 0.158035 1.22064 0.43934 0.93934C0.720644 0.658035 1.10218 0.5 1.5 0.5H13.5C13.8978 0.5 14.2794 0.658035 14.5607 0.93934C14.842 1.22064 15 1.60218 15 2V11C15 11.3978 14.842 11.7794 14.5607 12.0607C14.2794 12.342 13.8978 12.5 13.5 12.5H8.925L6.15 15.2825C6 15.425 5.8125 15.5 5.625 15.5H5.25ZM6 11V13.31L8.31 11H13.5V2H1.5V11H6ZM11.25 7.25H9.75V5.75H11.25V7.25ZM8.25 7.25H6.75V5.75H8.25V7.25ZM5.25 7.25H3.75V5.75H5.25V7.25Z" fill="#F76388"/>
</svg>
